<svg xmlns="http://www.w3.org/2000/svg" viewBox="0 194.3 612 462"><path fill="#FE5000" d="M612 656.3H0v-462h612"/><path fill="none" d="M612 205v442.6"/><g fill="#FFF" stroke="#FFF" stroke-miterlimit="10"><path d="M53 469.7V364.4h11.7v42.4c4.9-5 10.4-8.8 16.5-11.3 6.1-2.4 12.8-3.8 20.1-3.8 13 0 24 3.9 33.2 11.7 9.2 7.8 13.8 17.2 13.8 28.4 0 11-4.6 20.4-13.9 28.2s-20.3 11.6-33.4 11.6c-7.4 0-14.2-1.3-20.2-4s-11.4-6.6-16-11.9v14H53zm47.1-7.5c6.5 0 12.5-1.3 18.2-4 5.5-2.7 9.9-6.4 13.2-11.3 3.3-4.8 4.9-10 4.9-15.4s-1.6-10.5-4.9-15.4c-3.3-4.9-7.8-8.7-13.3-11.4-5.5-2.8-11.5-4.1-17.8-4.1-6.4 0-12.5 1.3-18.4 4.1-5.8 2.8-10.2 6.4-13.4 11-3.1 4.6-4.7 9.8-4.7 15.6 0 8.8 3.5 16.1 10.4 22 7.1 5.9 15.7 8.9 25.8 8.9zM237.9 444.7h10.4c-1.6 7.2-7.2 13.8-11.5 16.9-4.3 3.3-9.1 5.7-14.4 7.4s-11.3 2.5-18.1 2.5c-14.9 0-26.6-4.1-35-12.1-8.4-8.2-12.6-17.3-12.6-27.5 0-9.6 3.6-18.3 10.7-25.8 9.1-9.6 21.1-14.4 36.2-14.4 15.6 0 28.1 4.9 37.3 14.7 6.6 6.9 10 15.6 10.1 26h-82.3c.2 8.9 3.6 16 10.2 21.7 6.5 5.6 14.7 8.5 24.3 8.5 4.7 0 9.2-.7 13.6-2s8.2-3.2 11.2-5.4c3.1-2.2 6.3-5.5 9.9-10.5zm.2-20.6c-1.5-5.2-3.9-9.4-6.8-12.5-3-3.2-6.9-5.6-11.9-7.5-4.9-1.9-10.1-2.9-15.6-2.9-9 0-16.7 2.4-23.2 7.2-4.7 3.5-8.3 8.8-10.7 15.7h68.2zM260.3 469.7V364.4H272v42.4c4.9-5 10.4-8.8 16.5-11.3 6.1-2.4 12.8-3.8 20.1-3.8 13 0 24 3.9 33.1 11.7 9.2 7.8 13.8 17.2 13.8 28.4 0 11-4.6 20.4-13.9 28.2-9.3 7.8-20.3 11.6-33.4 11.6-7.4 0-14.2-1.3-20.2-4s-11.4-6.6-16-11.9v14h-11.7zm47-7.5c6.5 0 12.5-1.3 18.2-4 5.5-2.7 9.9-6.4 13.2-11.3 3.3-4.8 4.9-10 4.9-15.4s-1.6-10.5-4.9-15.4-7.8-8.7-13.3-11.4c-5.5-2.7-11.5-4.1-17.9-4.1s-12.5 1.3-18.4 4.1c-5.8 2.8-10.2 6.4-13.4 11-3.1 4.6-4.7 9.8-4.7 15.6 0 8.8 3.5 16.1 10.4 22 7.3 5.9 15.8 8.9 25.9 8.9zM411.7 391.7c14.1 0 25.8 4.3 35 12.8 8.5 7.8 12.6 16.8 12.6 27.4s-4.5 19.9-13.4 27.8c-8.9 8-20.3 11.9-34.3 11.9-14.1 0-25.5-4-34.4-11.9-8.9-8-13.4-17.2-13.4-27.8 0-10.5 4.2-19.7 12.6-27.3 9.4-8.6 21.1-12.9 35.3-12.9zm-.1 9.6c-9.8 0-18.2 3-25.2 9s-10.5 13.3-10.5 21.8c0 5.5 1.6 10.6 4.8 15.4 3.2 4.8 7.5 8.4 13 11 5.4 2.6 11.4 3.9 18 3.9 6.5 0 12.5-1.3 18-3.9 5.4-2.5 9.8-6.2 13-11s4.8-9.9 4.8-15.4c0-8.6-3.6-15.8-10.6-21.8-7.2-5.9-15.6-9-25.3-9zM467.9 393.8h11.7v14c4.7-5.3 10-9.3 16-11.9 6-2.7 12.8-4 20.2-4 13 0 24.1 3.9 33.4 11.6 9.3 7.8 13.9 17.1 13.9 28 0 11.2-4.6 20.7-13.8 28.5s-20.2 11.7-33.2 11.7c-7.2 0-14-1.2-20.1-3.8-6.1-2.5-11.6-6.2-16.5-11.2v40.8h-11.7l.1-103.7zm47 7.4c-10.2 0-18.8 3-25.7 8.9-6.9 5.9-10.4 13.3-10.4 22 0 5.8 1.5 10.9 4.7 15.5 3.1 4.6 7.5 8.3 13.4 10.9 5.8 2.7 11.9 4.1 18.4 4.1 6.3 0 12.2-1.3 17.8-4.1 5.6-2.8 10-6.5 13.3-11.4s4.9-10 4.9-15.3c0-5.4-1.6-10.5-4.9-15.3-3.3-4.8-7.6-8.6-13.2-11.2-5.6-2.7-11.8-4.1-18.3-4.1z"/></g></svg>