<?xml version="1.0" encoding="utf-8"?>
<!-- Generator: Adobe Illustrator 18.1.1, SVG Export Plug-In . SVG Version: 6.00 Build 0)  -->
<svg version="1.1" id="Layer_1" xmlns="http://www.w3.org/2000/svg" xmlns:xlink="http://www.w3.org/1999/xlink" x="0px" y="0px"
	 viewBox="0 194.3 612 462" enable-background="new 0 194.3 612 462" xml:space="preserve">
<g>
	<polyline fill="#FE5000" points="612,656.3 0,656.3 0,194.3 612,194.3 	"/>
	<line fill="none" x1="612" y1="205" x2="612" y2="647.6"/>
	<g>
		<path fill="#FFFFFF" stroke="#FFFFFF" stroke-miterlimit="10" d="M53,469.7V364.4h11.7v42.4c4.9-5,10.4-8.8,16.5-11.3
			c6.1-2.4,12.8-3.8,20.1-3.8c13,0,24,3.9,33.2,11.7c9.2,7.8,13.8,17.2,13.8,28.4c0,11-4.6,20.4-13.9,28.2s-20.3,11.6-33.4,11.6
			c-7.4,0-14.2-1.3-20.2-4c-6-2.7-11.4-6.6-16-11.9v14H53L53,469.7z M100.1,462.2c6.5,0,12.5-1.3,18.2-4c5.5-2.7,9.9-6.4,13.2-11.3
			c3.3-4.8,4.9-10,4.9-15.4s-1.6-10.5-4.9-15.4c-3.3-4.9-7.8-8.7-13.3-11.4c-5.5-2.8-11.5-4.1-17.8-4.1c-6.4,0-12.5,1.3-18.4,4.1
			c-5.8,2.8-10.2,6.4-13.4,11c-3.1,4.6-4.7,9.8-4.7,15.6c0,8.8,3.5,16.1,10.4,22C81.4,459.2,90,462.2,100.1,462.2z"/>
		<path fill="#FFFFFF" stroke="#FFFFFF" stroke-miterlimit="10" d="M237.9,444.7h10.4c-1.6,7.2-7.2,13.8-11.5,16.9
			c-4.3,3.3-9.1,5.7-14.4,7.4s-11.3,2.5-18.1,2.5c-14.9,0-26.6-4.1-35-12.1c-8.4-8.2-12.6-17.3-12.6-27.5c0-9.6,3.6-18.3,10.7-25.8
			c9.1-9.6,21.1-14.4,36.2-14.4c15.6,0,28.1,4.9,37.3,14.7c6.6,6.9,10,15.6,10.1,26h-82.3c0.2,8.9,3.6,16,10.2,21.7
			c6.5,5.6,14.7,8.5,24.3,8.5c4.7,0,9.2-0.7,13.6-2c4.4-1.3,8.2-3.2,11.2-5.4C231.1,453,234.3,449.7,237.9,444.7z M238.1,424.1
			c-1.5-5.2-3.9-9.4-6.8-12.5c-3-3.2-6.9-5.6-11.9-7.5c-4.9-1.9-10.1-2.9-15.6-2.9c-9,0-16.7,2.4-23.2,7.2
			c-4.7,3.5-8.3,8.8-10.7,15.7C169.8,424.1,238.1,424.1,238.1,424.1z"/>
		<path fill="#FFFFFF" stroke="#FFFFFF" stroke-miterlimit="10" d="M260.3,469.7V364.4H272v42.4c4.9-5,10.4-8.8,16.5-11.3
			c6.1-2.4,12.8-3.8,20.1-3.8c13,0,24,3.9,33.1,11.7c9.2,7.8,13.8,17.2,13.8,28.4c0,11-4.6,20.4-13.9,28.2
			c-9.3,7.8-20.3,11.6-33.4,11.6c-7.4,0-14.2-1.3-20.2-4s-11.4-6.6-16-11.9v14H260.3L260.3,469.7z M307.3,462.2
			c6.5,0,12.5-1.3,18.2-4c5.5-2.7,9.9-6.4,13.2-11.3c3.3-4.8,4.9-10,4.9-15.4s-1.6-10.5-4.9-15.4s-7.8-8.7-13.3-11.4
			c-5.5-2.7-11.5-4.1-17.9-4.1s-12.5,1.3-18.4,4.1c-5.8,2.8-10.2,6.4-13.4,11c-3.1,4.6-4.7,9.8-4.7,15.6c0,8.8,3.5,16.1,10.4,22
			C288.7,459.2,297.2,462.2,307.3,462.2z"/>
		<path fill="#FFFFFF" stroke="#FFFFFF" stroke-miterlimit="10" d="M411.7,391.7c14.1,0,25.8,4.3,35,12.8
			c8.5,7.8,12.6,16.8,12.6,27.4s-4.5,19.9-13.4,27.8c-8.9,8-20.3,11.9-34.3,11.9c-14.1,0-25.5-4-34.4-11.9
			c-8.9-8-13.4-17.2-13.4-27.8c0-10.5,4.2-19.7,12.6-27.3C385.8,396,397.5,391.7,411.7,391.7z M411.6,401.3c-9.8,0-18.2,3-25.2,9
			s-10.5,13.3-10.5,21.8c0,5.5,1.6,10.6,4.8,15.4c3.2,4.8,7.5,8.4,13,11c5.4,2.6,11.4,3.9,18,3.9c6.5,0,12.5-1.3,18-3.9
			c5.4-2.5,9.8-6.2,13-11s4.8-9.9,4.8-15.4c0-8.6-3.6-15.8-10.6-21.8C429.7,404.4,421.3,401.3,411.6,401.3z"/>
		<path fill="#FFFFFF" stroke="#FFFFFF" stroke-miterlimit="10" d="M467.9,393.8h11.7v14c4.7-5.3,10-9.3,16-11.9
			c6-2.7,12.8-4,20.2-4c13,0,24.1,3.9,33.4,11.6c9.3,7.8,13.9,17.1,13.9,28c0,11.2-4.6,20.7-13.8,28.5s-20.2,11.7-33.2,11.7
			c-7.2,0-14-1.2-20.1-3.8c-6.1-2.5-11.6-6.2-16.5-11.2v40.8h-11.7L467.9,393.8L467.9,393.8z M514.9,401.2c-10.2,0-18.8,3-25.7,8.9
			c-6.9,5.9-10.4,13.3-10.4,22c0,5.8,1.5,10.9,4.7,15.5c3.1,4.6,7.5,8.3,13.4,10.9c5.8,2.7,11.9,4.1,18.4,4.1
			c6.3,0,12.2-1.3,17.8-4.1c5.6-2.8,10-6.5,13.3-11.4s4.9-10,4.9-15.3c0-5.4-1.6-10.5-4.9-15.3c-3.3-4.8-7.6-8.6-13.2-11.2
			C527.6,402.6,521.4,401.2,514.9,401.2z"/>
	</g>
</g>
</svg>
